<?xml version="1.0" encoding="UTF-8" standalone="no"?>
<!-- Created with Inkscape (http://www.inkscape.org/) -->

<svg
   xmlns:dc="http://purl.org/dc/elements/1.1/"
   xmlns:cc="http://creativecommons.org/ns#"
   xmlns:rdf="http://www.w3.org/1999/02/22-rdf-syntax-ns#"
   xmlns:svg="http://www.w3.org/2000/svg"
   xmlns="http://www.w3.org/2000/svg"
   xmlns:xlink="http://www.w3.org/1999/xlink"
   xmlns:sodipodi="http://sodipodi.sourceforge.net/DTD/sodipodi-0.dtd"
   xmlns:inkscape="http://www.inkscape.org/namespaces/inkscape"
   width="219.18782mm"
   height="219.18782mm"
   viewBox="0 0 776.64976 776.64976"
   id="svg2"
   version="1.1"
   inkscape:version="0.91 r13725"
   sodipodi:docname="logo_electronica_udistrital_azul_negro_amarillo.svg">
  <defs
     id="defs4">
    <ellipse
       style="display:inline;opacity:1;fill:#002aff;fill-opacity:1;stroke:#ffffff;stroke-width:7.11944866;stroke-miterlimit:4;stroke-dasharray:none;stroke-dashoffset:0;stroke-opacity:1"
       id="path4419-2-6"
       cx="435.37576"
       cy="731.06995"
       rx="294.40482"
       ry="294.46857" />
    <path
       style="opacity:1;fill:none;fill-opacity:1;stroke:#ff0000;stroke-width:8.22637463;stroke-miterlimit:4;stroke-dasharray:none;stroke-dashoffset:0;stroke-opacity:1"
       d="m 193.16044,983.03101 c 15.39006,15.39339 32.2479,29.31869 50.34552,41.54789 18.09762,12.2291 37.43503,22.7621 57.78424,31.371 20.34921,8.6088 41.71021,15.2935 63.85502,19.826 22.14481,4.5324 45.07343,6.9127 68.55786,6.9127 187.8755,0 340.17868,-152.33613 340.17868,-340.2523 0,-46.97904 -9.51896,-91.73433 -26.73293,-132.44156 l 57.02894,-194.22138 256.51633,-94.74931 147.9014,196.43148"
       id="path4419-3"
       inkscape:connector-curvature="0"
       sodipodi:nodetypes="cssssscccc" />
    <path
       style="opacity:1;fill:none;fill-opacity:1;stroke:#ff0000;stroke-width:8.22637463;stroke-miterlimit:4;stroke-dasharray:none;stroke-dashoffset:0;stroke-opacity:1"
       d="m 193.16044,983.03101 c 15.39006,15.39339 32.2479,29.31869 50.34552,41.54789 18.09762,12.2291 37.43503,22.7621 57.78424,31.371 20.34921,8.6088 41.71021,15.2935 63.85502,19.826 22.14481,4.5324 45.07343,6.9127 68.55786,6.9127 187.8755,0 340.17868,-152.33613 340.17868,-340.2523 0,-46.97904 -9.51896,-91.73433 -26.73293,-132.44156 l 57.02894,-194.22138 256.51633,-94.74931 147.9014,196.43148"
       id="path4419-5"
       inkscape:connector-curvature="0"
       sodipodi:nodetypes="cssssscccc" />
    <path
       style="opacity:1;fill:none;fill-opacity:1;stroke:#ff0000;stroke-width:10;stroke-miterlimit:4;stroke-dasharray:none;stroke-dashoffset:0;stroke-opacity:1"
       d="m 149.39749,645.7461 c 2.90233,-9.33127 6.25092,-18.46591 10.02083,-27.37897 7.53981,-17.82611 16.76485,-34.76588 27.4754,-50.61958 10.71055,-15.85371 22.90661,-30.62134 36.38846,-44.10319 13.48185,-13.48185 28.24948,-25.67791 44.10319,-36.38846 15.8537,-10.71055 32.79347,-19.93559 50.61958,-27.4754 17.82612,-7.53981 36.53857,-13.39439 55.93766,-17.36402 19.39908,-3.96963 39.48478,-6.0543 60.05739,-6.0543 20.57261,0 40.65831,2.08467 60.05739,6.0543 19.39909,3.96963 38.11154,9.82421 55.93766,17.36402 17.82611,7.53981 34.76588,16.76485 50.61958,27.4754 15.85371,10.71055 30.62134,22.90661 44.10319,36.38846 13.48185,13.48185 25.67791,28.24948 36.38846,44.10319 10.71055,15.8537 19.93559,32.79347 27.4754,50.61958 7.53981,17.82612 13.39439,36.53857 17.36402,55.93766 3.96963,19.39908 6.0543,39.48478 6.0543,60.05739"
       id="path4240-6"
       inkscape:connector-curvature="0"
       sodipodi:nodetypes="cssssssssssssssc" />
  </defs>
  <sodipodi:namedview
     id="base"
     pagecolor="#ffffff"
     bordercolor="#666666"
     borderopacity="1.0"
     inkscape:pageopacity="0.0"
     inkscape:pageshadow="2"
     inkscape:zoom="1"
     inkscape:cx="315.53246"
     inkscape:cy="401.45063"
     inkscape:document-units="px"
     inkscape:current-layer="layer2"
     showgrid="false"
     inkscape:window-width="1920"
     inkscape:window-height="1010"
     inkscape:window-x="0"
     inkscape:window-y="33"
     inkscape:window-maximized="1"
     fit-margin-top="0"
     fit-margin-left="0"
     fit-margin-right="0"
     fit-margin-bottom="0" />
  <metadata
     id="metadata7">
    <rdf:RDF>
      <cc:Work
         rdf:about="">
        <dc:format>image/svg+xml</dc:format>
        <dc:type
           rdf:resource="http://purl.org/dc/dcmitype/StillImage" />
        <dc:title />
      </cc:Work>
    </rdf:RDF>
  </metadata>
  <g
     inkscape:groupmode="layer"
     id="layer2"
     inkscape:label="Layer 2"
     style="display:inline;opacity:1"
     transform="translate(-929.47821,-356.12433)">
    <circle
       style="opacity:1;fill:#6699cc;fill-opacity:1;stroke:#000000;stroke-width:12;stroke-miterlimit:4;stroke-dasharray:none;stroke-dashoffset:0;stroke-opacity:1"
       id="path4152-0"
       cx="1317.8031"
       cy="-744.44922"
       transform="scale(1,-1)"
       r="382.32489" />
    <circle
       style="opacity:1;fill:#000000;fill-opacity:1;stroke:none;stroke-width:10;stroke-miterlimit:4;stroke-dasharray:none;stroke-dashoffset:0;stroke-opacity:1"
       id="path4194-9"
       cx="1317.8031"
       cy="744.44922"
       r="269.1929" />
    <ellipse
       style="display:inline;opacity:1;fill:none;fill-opacity:1;stroke:#f2ff00;stroke-width:13;stroke-miterlimit:4;stroke-dasharray:none;stroke-dashoffset:0;stroke-opacity:1"
       id="path4230-6"
       cx="1347.5739"
       cy="-677.96045"
       rx="77.824387"
       ry="210.22351"
       transform="matrix(0.55629562,0.83098447,-0.83098447,0.55629562,0,0)" />
    <ellipse
       style="display:inline;opacity:1;fill:none;fill-opacity:1;stroke:#f2ff00;stroke-width:13;stroke-miterlimit:4;stroke-dasharray:none;stroke-dashoffset:0;stroke-opacity:1"
       id="path4230-7-2"
       cx="-423.55994"
       cy="1447.8203"
       rx="77.824387"
       ry="210.22351"
       transform="matrix(-0.71691059,0.69716512,0.69716512,0.71691059,0,0)" />
    <path
       style="display:inline;opacity:1;fill:#000000;fill-opacity:1;stroke:#f2ff00;stroke-width:13;stroke-miterlimit:4;stroke-dasharray:none;stroke-dashoffset:0;stroke-opacity:1"
       d="m 1412.0553,750.0468 a 98.64481,176.80365 9.4589236 0 1 -126.9079,156.64031 98.64481,176.80365 9.4589236 0 1 -67.2225,-191.88534 98.64481,176.80365 9.4589236 0 1 126.9079,-156.64032 98.64481,176.80365 9.4589236 0 1 67.2225,191.88535 z"
       id="path4196-5"
       inkscape:connector-curvature="0" />
    <circle
       style="display:inline;opacity:1;fill:#000000;fill-opacity:1;stroke:#f2ff00;stroke-width:8;stroke-miterlimit:4;stroke-dasharray:none;stroke-dashoffset:0;stroke-opacity:1"
       id="path4251-9"
       cx="1347.499"
       cy="558.24072"
       r="10.839905" />
    <circle
       style="display:inline;opacity:1;fill:#000000;fill-opacity:1;stroke:#f2ff00;stroke-width:8;stroke-miterlimit:4;stroke-dasharray:none;stroke-dashoffset:0;stroke-opacity:1"
       id="path4251-5-1"
       cx="1136.0034"
       cy="855.17767"
       r="10.839905" />
    <circle
       style="display:inline;opacity:1;fill:#000000;fill-opacity:1;stroke:#f2ff00;stroke-width:8;stroke-miterlimit:4;stroke-dasharray:none;stroke-dashoffset:0;stroke-opacity:1"
       id="path4251-3-2"
       cx="1456.1766"
       cy="895.63202"
       r="10.839905" />
    <path
       style="opacity:1;fill:#f2ff00;fill-opacity:1;stroke:none;stroke-width:4.28571415;stroke-miterlimit:4;stroke-dasharray:none;stroke-dashoffset:0;stroke-opacity:1"
       d="m 1324.1511,849.1602 c -11.7204,-20.65608 -15.829,-38.16788 -18.0495,-76.92983 -0.4501,-7.85714 -0.9602,-14.43316 -1.1336,-14.61337 -0.1734,-0.1802 -3.5722,-1.05807 -7.5528,-1.9508 -11.2315,-2.51888 -18.0766,-6.24242 -25.9505,-14.11636 -5.2324,-5.23236 -7.0293,-7.61789 -9.4415,-12.53376 -4.5378,-9.24784 -5.5271,-13.73622 -5.5105,-25 0.012,-7.85652 0.3142,-10.68754 1.6334,-15.28217 3.5256,-12.27944 9.6762,-22.62058 19.6741,-33.07859 6.2942,-6.58385 16.1906,-14.46508 21.9013,-17.44169 2.7107,-1.72101 2.9016,-1.55674 5.0726,0.52329 3.0902,2.96056 6.6357,10.46124 6.0493,12.79759 -0.2567,1.0228 -3.8707,5.45335 -8.0311,9.84566 -16.7387,17.67191 -23.8754,33.21827 -22.9223,49.93351 0.3119,5.4712 0.7287,7.10132 2.9813,11.65898 4.313,8.72678 10.92,14.38452 18.27,15.64497 1.375,0.2358 2.9251,0.14751 3.4445,-0.1962 1.4144,-0.93579 2.2337,-5.45178 2.2528,-12.4165 0.066,-24.20468 10.991,-61.24789 24.0223,-81.45423 6.6097,-10.2489 12.9423,-15.26966 18.473,-14.64627 7.3943,0.83344 17.3679,7.42287 22.8383,15.08894 13.11,18.37201 16.893,45.69968 9.3831,67.78163 -3.4289,10.08211 -8.0864,17.47209 -16.1393,25.60752 -6.1205,6.18321 -7.5918,7.25755 -14.7869,10.79726 -6.5212,3.20818 -13.3396,5.78504 -21.4521,8.10731 -1.1068,0.31683 -1.2193,24.06351 -0.1654,34.90351 1.4083,14.4845 7.0329,28.34004 15.0565,37.08987 l 4.4999,4.90724 -2.4248,4.73562 c -2.6005,5.0787 -11.4784,14.7072 -15.4355,16.74058 l -2.2193,1.14041 z m 11.9845,-117.99738 c 9.5152,-6.46162 19.0497,-17.30314 23.5975,-26.83229 3.3237,-6.96422 4.4179,-13.38151 4.1433,-24.29921 -0.5432,-6.63788 -0.67,-10.21928 -3.2841,-15.49267 -3.1089,-6.27171 -9.0705,-13.65027 -11.7043,-14.48621 -4.6801,-1.48539 -14.1156,17.03731 -17.3914,34.14066 -1.9335,10.09464 -3.1968,24.69043 -3.2048,37.02536 0,6.51489 0.2067,12.05953 0.4686,12.32143 1.0728,1.07281 3.3992,0.323 7.3752,-2.37707 z"
       id="path4398"
       inkscape:connector-curvature="0"
       sodipodi:nodetypes="sscssscsscccsccsccssssssssscsscsssccsscss" />
    <text
       y="-945.82855"
       x="-198.31966"
       xml:space="preserve"
       style="font-style:normal;font-variant:normal;font-weight:bold;font-stretch:normal;font-size:35px;line-height:125%;font-family:sans-serif;-inkscape-font-specification:'sans-serif Bold';letter-spacing:8.35000038px;word-spacing:0px;display:inline;opacity:1;fill:#ff0000;fill-opacity:1;stroke:none;stroke-width:1px;stroke-linecap:butt;stroke-linejoin:miter;stroke-opacity:1"
       id="text4559-3"
       sodipodi:linespacing="125%"
       transform="matrix(0.99939083,-0.0348995,0.0348995,0.99939083,853.86958,22.939227)"><textPath
         xlink:href="#path4419-5"
         id="textPath4195-5"
         style="font-style:normal;font-variant:normal;font-weight:bold;font-stretch:normal;font-size:66.25px;font-family:sans-serif;-inkscape-font-specification:'sans-serif Bold';letter-spacing:8.35000038px;fill:#ff0000;fill-opacity:1">ELECTRÓNICA</textPath></text>
    <text
       y="-388.80078"
       x="-106.47958"
       xml:space="preserve"
       style="font-style:normal;font-variant:normal;font-weight:bold;font-stretch:normal;font-size:66.25px;line-height:125%;font-family:sans-serif;-inkscape-font-specification:'sans-serif Bold';letter-spacing:0px;word-spacing:0px;display:inline;opacity:1;fill:#ff0000;fill-opacity:1;stroke:none;stroke-width:1px;stroke-linecap:butt;stroke-linejoin:miter;stroke-opacity:1"
       id="text4243-2"
       sodipodi:linespacing="125%"
       transform="translate(880.31605,9.781326)"><textPath
         xlink:href="#path4240-6"
         id="textPath4247-9"><tspan
   id="tspan4245-1"
   style="font-style:normal;font-variant:normal;font-weight:bold;font-stretch:normal;font-family:sans-serif;-inkscape-font-specification:'sans-serif Bold';fill:#ff0000;fill-opacity:1">UNIVERSIDAD DISTRITAL</tspan></textPath></text>
  </g>
</svg>
